<?xml version="1.0" encoding="utf-8"?>
<svg width="484.479" height="157" viewBox="0 0 484.479 157" fill="none" xmlns="http://www.w3.org/2000/svg">
  <g id="logo">
    <path id="Shape" d="M58.3703 96.1564L28.7369 0L20.2757 0L25.0008 15.3326C25.0008 15.3326 8.48164 89.633 8.48164 89.633C7.45361 93.4671 3.9825 96.1564 0 96.1564C0 96.1564 0 96.6049 0 96.6049L14.3928 96.6049L14.3928 96.1564L7.47627 96.1564L8.92987 89.7234L14.5247 64.5525L40.1511 64.5525L50.0447 96.6049L61.3931 96.6049L61.3931 96.1564L58.3703 96.1564L58.3703 96.1564ZM14.6151 64.1032L25.27 16.2058L40.0192 64.1032L14.6151 64.1032L14.6151 64.1032Z" fill="#005C5C" fill-rule="evenodd" transform="translate(241.374 7.514)" />
    <path id="Path" d="M73.6335 0.448894L73.6335 0L62.2651 0L36.8175 82.6171L11.3684 1.85966e-05L0 1.85966e-05L0 0.448912L2.97711 0.448912L2.97711 96.1538L0 96.1538L0 96.6027L17.5907 96.6027C17.5907 96.6027 17.6149 96.1538 17.6149 96.1538C9.66991 95.7071 3.42538 89.0932 3.42538 81.0933C3.42538 81.0933 3.42538 1.72599 3.42538 1.72599L32.6536 96.6027L41.1379 96.6027L37.0643 83.4018L62.2197 1.72599L62.2197 96.1538L59.2422 96.1538L59.2422 96.6027L73.6335 96.6027L73.6335 96.1538L70.6583 96.1538L70.6583 0.448931L73.6335 0.448931L73.6335 0.448894Z" fill="#005C5C" fill-rule="evenodd" transform="translate(155.449 7.515)" />
    <path id="Shape" d="M6.10352e-05 14.8489C6.10352e-05 13.5304 0.195465 12.1754 0.584412 10.7766C0.968292 9.38 1.53177 8.04534 2.26669 6.76428C3.00049 5.49114 3.89493 4.34331 4.94809 3.32232C5.99857 2.30849 7.17725 1.49697 8.4838 0.901733C9.79071 0.299694 11.2193 0 12.7722 0C15.0369 0 16.8084 0.626183 18.0833 1.87291C19.3608 3.12152 20 4.90158 20 7.21609C20 8.53188 19.8003 9.88543 19.4033 11.2695C19.0059 12.6597 18.439 13.9902 17.7009 15.2656C16.966 16.5448 16.0727 17.6926 15.0222 18.7091C13.9698 19.7278 12.7868 20.5344 11.4695 21.1342C10.1544 21.7336 8.72742 22.0318 7.19809 22.0318C4.93143 22.0318 3.16608 21.4093 1.89935 20.1607C0.632233 18.9121 0 17.1445 0 14.8489C0 14.8489 6.10352e-05 14.8489 6.10352e-05 14.8489ZM12.4969 0.540134C11.5576 0.540134 10.6312 0.815296 9.72589 1.36372C8.81406 1.91215 7.97366 2.67158 7.19818 3.63898C6.42267 4.60601 5.73795 5.71308 5.14511 6.96091C4.55496 8.20762 4.08844 9.54003 3.75204 10.9573C3.41605 12.3743 3.24573 13.7992 3.24573 15.2365C3.24573 17.1932 3.63889 18.7238 4.42676 19.8323C5.21072 20.939 6.22723 21.4939 7.47583 21.4939C8.41467 21.4939 9.33698 21.2183 10.2446 20.6699C11.1544 20.1218 11.9968 19.3639 12.7723 18.3946C13.5478 17.428 14.2306 16.3209 14.825 15.0746C15.4178 13.826 15.8816 12.4932 16.2184 11.0785C16.5525 9.65968 16.7243 8.23215 16.7243 6.79671C16.7243 4.84002 16.3296 3.31021 15.5433 2.20126C14.7578 1.09232 13.7428 0.540115 12.4969 0.540115C12.4969 0.540115 12.4969 0.540134 12.4969 0.540134Z" fill="#F0FFF0" fill-rule="evenodd" transform="translate(345 51.074)" />
    <path id="Shape" d="M2.73071 15.8451C2.73071 15.8451 5.66705 4.2002 5.66705 4.2002C5.78836 3.71875 5.89078 3.23466 5.97922 2.7445C6.0722 2.25434 6.10056 1.80128 6.0722 1.39401C6.0412 0.984097 5.89078 0.648365 5.62167 0.386833C5.35446 0.12719 4.9187 0 4.31812 0C3.68051 0 3.03308 0.197197 2.38565 0.598778C1.73557 0.998085 1.19055 1.83041 0.750641 3.08816C0.750641 3.08816 0 5.27966 0 5.27966L0.571472 5.27966C0.571472 5.27966 0.96228 4.16916 0.96228 4.16916C1.38177 2.98975 1.76239 2.18241 2.09915 1.75396C2.44083 1.3236 2.82974 1.10975 3.26965 1.10975C3.59018 1.10975 3.7897 1.21232 3.86758 1.42466C3.94583 1.63246 3.96432 1.8834 3.91483 2.17407C3.86343 2.46438 3.7977 2.72972 3.71793 2.97081C3.71793 2.97081 0.121704 15.8451 0.121704 15.8451L2.73071 15.8451L2.73071 15.8451ZM4.10837 9.60175C4.80573 7.80161 5.48639 6.29026 6.14783 5.06923C6.80585 3.85009 7.45593 2.86411 8.095 2.11467C8.7345 1.36298 9.38834 0.82362 10.057 0.49395C10.7275 0.162392 11.4221 1.52588e-05 12.1418 1.52588e-05C13.0772 1.52588e-05 13.7231 0.224083 14.0746 0.675251C14.4242 1.12187 14.578 1.69228 14.5391 2.38456C14.4983 3.0738 14.3603 3.78879 14.12 4.52989C14.12 4.52989 11.2124 13.2936 11.2124 13.2936C11.0332 13.8353 10.9576 14.28 10.9883 14.6297C11.017 14.9798 11.2513 15.1566 11.6913 15.1566C12.0719 15.1566 12.446 14.9473 12.8164 14.5245C13.1864 14.1025 13.5791 13.2936 14.0005 12.0953C14.0005 12.0953 14.3894 10.9833 14.3894 10.9833L14.9586 10.9833C14.9586 10.9833 14.208 13.174 14.208 13.174C13.9306 14.0147 13.5832 14.6547 13.1739 15.0956C12.7668 15.5362 12.3371 15.8386 11.8866 16.0097C11.4365 16.1804 11.003 16.2645 10.5834 16.2645C10.1019 16.2645 9.70956 16.1865 9.39661 16.0241C9.0882 15.8678 8.85385 15.6551 8.69553 15.3977C8.4733 15.0355 8.40335 14.5661 8.48389 13.9836C8.56439 13.4045 8.72464 12.7641 8.9631 12.0643C8.9631 12.0643 11.8106 3.47954 11.8106 3.47954C11.9115 3.19982 11.9954 2.86411 12.068 2.475C12.1353 2.08364 12.1213 1.73353 12.0207 1.42467C11.9213 1.11581 11.6318 0.957222 11.1526 0.957222C10.6718 0.957222 10.162 1.16918 9.62491 1.58932C9.08408 2.00718 8.5228 2.60256 7.94525 3.37508C7.36548 4.14494 6.7959 5.06698 6.23618 6.13585C5.67908 7.20699 5.14236 8.3864 4.63254 9.67744C4.12305 10.9689 3.65781 12.3443 3.23865 13.8042C3.23865 13.8042 4.10831 9.60175 4.10831 9.60175C4.10831 9.60175 4.10837 9.60175 4.10837 9.60175Z" fill="#F0FFF0" fill-rule="evenodd" transform="translate(365.938 56.718)" />
    <path id="Shape" d="M2.547 17.8568C2.547 17.8568 7.6131 0 7.6131 0C7.23062 0.140053 6.80692 0.238834 6.34018 0.300526C5.86923 0.360703 5.39453 0.399696 4.91565 0.420135C4.91565 0.420135 0.270203 16.6278 0.270203 16.6278C0.0302124 17.4495 -0.0503235 18.1804 0.0302124 18.819C0.109985 19.4594 0.362823 19.9529 0.792542 20.3057C1.22266 20.6535 1.84555 20.8303 2.66568 20.8303C3.58487 20.8303 4.39105 20.5899 5.08005 20.11C5.76865 19.6278 6.33408 18.7383 6.77176 17.4389C6.77176 17.4389 7.40332 15.5468 7.40332 15.5468L6.83148 15.5468C6.83148 15.5468 6.41232 16.7164 6.41232 16.7164C5.97391 17.9579 5.52982 18.7694 5.08005 19.1505C4.62952 19.5294 4.18506 19.7183 3.74738 19.7183C3.30746 19.7183 2.95181 19.574 2.68192 19.2841C2.41092 18.9957 2.36786 18.5184 2.54697 17.8568C2.54697 17.8568 2.547 17.8568 2.547 17.8568ZM10.1606 4.98141L10.0702 5.58474L0.749512 5.58474L0.897308 4.98141L10.1606 4.98141L10.1606 4.98141Z" fill="#F0FFF0" fill-rule="evenodd" transform="translate(391.057 52.154)" />
    <path id="Shape" d="M2.60562 23.8617C2.60562 23.8617 9.59055 0 9.59055 0C8.85016 0.378868 8.04169 0.675625 7.16409 0.885681C6.28232 1.09574 5.29321 1.20892 4.19492 1.23125C4.19492 1.23125 4.01611 1.86144 4.01611 1.86144C4.99274 1.86144 5.60956 2.02419 5.86014 2.34138C6.10922 2.66047 6.13416 3.16311 5.93423 3.84251C5.93423 3.84251 0 23.8617 0 23.8617L2.60562 23.8617L2.60562 23.8617ZM3.44656 19.4196C4.20547 17.3193 4.92886 15.5404 5.61789 14.0764C6.30881 12.6184 6.99326 11.4405 7.67169 10.551C8.35086 9.66155 9.05197 9.01471 9.76932 8.61538C10.4886 8.2138 11.2377 8.01433 12.0185 8.01433C12.9566 8.01433 13.6021 8.24067 13.9495 8.69184C14.301 9.14073 14.4555 9.7153 14.4166 10.4151C14.3751 11.1154 14.2375 11.8258 13.9967 12.5465C13.9967 12.5465 11.0895 21.3102 11.0895 21.3102C10.9285 21.831 10.8571 22.2716 10.8798 22.6323C10.9001 22.9923 11.1284 23.1717 11.5688 23.1717C11.9486 23.1717 12.325 22.9639 12.6928 22.5396C13.0613 22.1191 13.4559 21.3102 13.8754 20.1119C13.8754 20.1119 14.2662 18.9999 14.2662 18.9999L14.8354 18.9999C14.8354 18.9999 14.0871 21.1906 14.0871 21.1906C13.8055 22.0312 13.4623 22.6713 13.0534 23.1122C12.6441 23.5528 12.2121 23.8575 11.7638 24.0263C11.3133 24.197 10.8798 24.281 10.4602 24.281C9.66049 24.281 9.10074 24.1028 8.7821 23.742C8.46158 23.3836 8.32553 22.8832 8.37921 22.2405C8.42645 21.6028 8.58102 20.8817 8.84219 20.0808C8.84219 20.0808 11.6874 11.4961 11.6874 11.4961C11.7884 11.1952 11.8787 10.8474 11.9569 10.4443C12.0374 10.0465 12.0227 9.70051 11.9119 9.41058C11.8031 9.11988 11.5086 8.97379 11.0294 8.97379C10.5302 8.97379 9.99533 9.20013 9.42615 9.64902C8.8562 10.1002 8.27036 10.7448 7.67169 11.5869C7.07376 12.4268 6.4834 13.4363 5.90402 14.618C5.32388 15.8 4.76865 17.1134 4.24219 18.5649C3.70966 20.015 3.21643 21.5823 2.75757 23.2621C2.75757 23.2621 3.44659 19.4196 3.44659 19.4196C3.44659 19.4196 3.44656 19.4196 3.44656 19.4196Z" fill="#F0FFF0" fill-rule="evenodd" transform="translate(399.779 48.702)" />
    <path id="Path" d="M2.15958 9.03554C3.27792 8.65516 4.29163 8.27967 5.20023 7.90913C6.10883 7.54086 6.83261 7.14344 7.37381 6.7233C8.09344 6.14457 8.66302 5.44474 9.08255 4.623C9.50168 3.80165 9.71371 2.90159 9.71371 1.92165C9.71371 1.34066 9.67255 0.970104 9.59241 0.811516C9.50961 0.651024 9.39096 0.570408 9.23221 0.570408C8.73294 0.570408 8.19211 0.791077 7.6142 1.23166C7.03442 1.67223 6.46484 2.27517 5.90549 3.04769C5.34424 3.81794 4.8302 4.69303 4.36154 5.67295C3.89288 6.65364 3.51794 7.69943 3.23679 8.80918C2.9567 9.9212 2.81686 11.0272 2.81686 12.1263C2.81686 13.1479 3.0062 13.8833 3.38681 14.3322C3.76514 14.7826 4.26706 15.0075 4.88541 15.0075C5.60541 15.0075 6.36435 14.7891 7.16373 14.3485C7.9642 13.9079 8.74094 13.1275 9.50174 12.0071C9.50174 12.0071 9.98099 12.2459 9.98099 12.2459C9.60077 12.9091 9.103 13.5476 8.48389 14.1691C7.86102 14.7891 7.17014 15.2959 6.39911 15.6846C5.62958 16.0737 4.81546 16.2694 3.95639 16.2694C3.15854 16.2694 2.45743 16.107 1.85913 15.7894C1.26083 15.4685 0.80011 14.9927 0.479218 14.3629C0.161011 13.7327 0 12.9587 0 12.0359C0 11.1756 0.161011 10.2119 0.479218 9.13885C0.80011 8.07187 1.25668 6.99921 1.84476 5.9288C2.43478 4.85766 3.13812 3.87357 3.95639 2.97348C4.77658 2.07 5.68591 1.35125 6.68484 0.811497C7.68188 0.272137 8.7515 0 9.89026 0C10.5112 0 11.0358 0.165409 11.4637 0.496204C11.893 0.825878 12.1092 1.32208 12.1092 1.98106C12.1092 2.78196 11.8745 3.52723 11.4036 4.21722C10.9349 4.9095 10.3158 5.53933 9.54483 6.10783C8.77832 6.67974 7.94305 7.18467 7.04504 7.62562C6.14401 8.06619 5.26602 8.44657 4.40884 8.76414C3.54712 9.08549 2.78854 9.34666 2.12863 9.54649C2.12863 9.54649 2.15964 9.03552 2.15964 9.03552C2.15964 9.03552 2.15958 9.03554 2.15958 9.03554Z" fill="#F0FFF0" fill-rule="evenodd" transform="translate(416.471 56.715)" />
    <path id="Path" d="M17.8042 0.210445C17.6042 0.730881 17.3415 1.48675 17.0105 2.47501C16.6794 3.46781 16.3562 4.75433 16.0357 6.3319C16.0357 6.3319 15.4355 6.3319 15.4355 6.3319C15.4949 6.05182 15.5421 5.7634 15.5708 5.46287C15.6014 5.16235 15.6143 4.88453 15.6143 4.62299C15.6143 3.8834 15.4703 3.20626 15.1801 2.59462C14.8905 1.98523 14.4358 1.49509 13.8167 1.12605C13.198 0.755501 12.3779 0.570408 11.3601 0.570408C10.1612 0.570408 9.16 0.879269 8.36441 1.49924C7.56393 2.12074 7.1629 3.08251 7.1629 4.38378C7.1629 5.14381 7.35001 5.84819 7.71851 6.49846C8.08853 7.14909 8.55719 7.77134 9.12903 8.36029C9.69446 8.95111 10.3071 9.54006 10.9568 10.1309C11.6042 10.7221 12.2154 11.3254 12.7831 11.945C13.3523 12.5673 13.821 13.2236 14.1936 13.9094C14.5637 14.6013 14.7485 15.3678 14.7485 16.2077C14.7485 17.247 14.5164 18.1392 14.0576 18.8803C13.5972 19.6195 12.9985 20.2251 12.2585 20.6963C11.5181 21.166 10.7062 21.5165 9.8158 21.747C8.92725 21.9752 8.04132 22.0907 7.16293 22.0907C6.36356 22.0907 5.69534 22.0165 5.15451 21.8681C4.61783 21.716 4.1673 21.5305 3.8075 21.3121C3.44809 21.0896 3.14948 20.8924 2.9072 20.7107C2.68686 20.5298 2.48163 20.4124 2.29456 20.3485C2.10519 20.2887 1.9487 20.2603 1.82779 20.2603C1.56815 20.2603 1.35461 20.3958 1.18414 20.666C1.0152 20.9355 0.819794 21.3413 0.600189 21.8806C0.600189 21.8806 0 21.8806 0 21.8806C0.180664 21.44 0.370026 20.9313 0.569183 20.3485C0.768738 19.7724 0.990601 19.0245 1.23132 18.1164C1.46982 17.2039 1.73892 16.0593 2.0394 14.6778C2.0394 14.6778 2.63959 14.6778 2.63959 14.6778C2.55981 15.0975 2.48724 15.5029 2.42795 15.8924C2.36859 16.2834 2.3497 16.6891 2.36859 17.1093C2.42795 18.4707 2.84744 19.5392 3.6268 20.3197C4.40613 21.1001 5.61481 21.4911 7.254 21.4911C8.55304 21.4911 9.61203 21.1929 10.4307 20.5896C11.2512 19.99 11.662 19.0434 11.662 17.7398C11.662 16.8977 11.4935 16.1483 11.1643 15.4889C10.8355 14.8277 10.4061 14.2126 9.87549 13.6441C9.34711 13.0714 8.78586 12.5173 8.19778 11.9757C7.60739 11.4363 7.0484 10.872 6.51965 10.2815C5.98938 9.69257 5.55963 9.03323 5.23044 8.31484C4.90161 7.59418 4.73721 6.77283 4.73721 5.85384C4.73721 4.89019 4.92618 4.04803 5.30679 3.31715C5.68512 2.58665 6.18857 1.97651 6.81976 1.48673C7.44943 0.994686 8.15204 0.626019 8.9314 0.37471C9.71072 0.12793 10.5109 0 11.331 0C12.1682 0 12.8897 0.101055 13.4884 0.300915C14.0863 0.502655 14.6683 0.819832 15.2273 1.26041C15.4666 1.43944 15.6677 1.57722 15.826 1.66767C15.9863 1.75662 16.114 1.80202 16.2164 1.80202C16.4938 1.80202 16.8249 1.27024 17.204 0.210445C17.204 0.210445 17.8042 0.210445 17.8042 0.210445C17.8042 0.210445 17.8042 0.210445 17.8042 0.210445Z" fill="#F0FFF0" fill-rule="evenodd" transform="translate(436.012 50.893)" />
    <path id="Shape" d="M3.6842 15.308C3.36368 15.308 3.10892 15.1392 2.91959 14.7971C2.72986 14.4575 2.63574 13.8561 2.63574 12.9954C2.63574 11.9371 2.76086 10.8311 3.00992 9.67974C3.26093 8.52873 3.59805 7.41519 4.02966 6.33419C4.45935 5.2532 4.93866 4.27744 5.46698 3.40802C5.99759 2.53711 6.54645 1.84747 7.11603 1.33422C7.68561 0.825897 8.23062 0.568523 8.74838 0.568523C9.39017 0.568523 9.84674 0.89592 10.1306 1.54656C10.408 2.19683 10.4779 3.05373 10.3381 4.11201C10.3381 4.11201 10.6673 3.9311 10.6673 3.9311C10.8896 2.69152 10.8132 1.72747 10.4428 1.03595C10.075 0.345951 9.53839 0 8.83954 0C7.9408 0 7.05411 0.280087 6.1871 0.840275C5.31927 1.40007 4.51318 2.14155 3.77499 3.06017C3.03687 3.98067 2.38107 5.00376 1.81339 6.12411C1.24152 7.24409 0.797424 8.36824 0.47699 9.49881C0.15802 10.6313 0 11.6755 0 12.635C0 13.6975 0.234344 14.5665 0.705231 15.2459C1.17163 15.9276 1.87689 16.2675 2.81461 16.2675C3.61435 16.2675 4.40393 15.981 5.18552 15.4129C5.96262 14.8402 6.73209 13.914 7.4903 12.6207C8.24924 11.3296 9.00964 9.62447 9.76855 7.50375C9.76855 7.50375 10.2788 4.26267 10.2788 4.26267C9.95792 5.68583 9.52783 7.05523 8.98926 8.37241C8.45068 9.69679 7.86255 10.8766 7.22122 11.9167C6.58173 12.956 5.95279 13.7823 5.33145 14.3917C4.71234 15.0033 4.16586 15.308 3.68433 15.308C3.68433 15.308 3.6842 15.308 3.6842 15.308ZM11.2383 0.420166C11.7176 0.399727 12.1949 0.360748 12.6742 0.300556C13.1572 0.241138 13.5948 0.13818 13.9944 3.05176e-05C13.9944 3.05176e-05 10.25 13.2649 10.25 13.2649C10.2061 13.4466 10.1532 13.6812 10.0852 13.9734C10.0134 14.2638 10.0134 14.5276 10.0852 14.7687C10.1533 15.0075 10.3589 15.1263 10.696 15.1263C11.097 15.1263 11.4897 14.9064 11.868 14.4681C12.2463 14.0291 12.6269 13.2259 13.0052 12.0666C13.0052 12.0666 13.3647 10.9549 13.3647 10.9549L13.9343 10.9549C13.9343 10.9549 13.1859 13.1475 13.1859 13.1475C12.9062 13.9466 12.571 14.5726 12.1805 15.0215C11.7917 15.4727 11.3865 15.7936 10.9673 15.981C10.5478 16.1729 10.1385 16.2675 9.74008 16.2675C8.96078 16.2675 8.41159 16.0101 8.0903 15.487C7.83182 15.0302 7.75925 14.4923 7.88135 13.883C8.00003 13.2713 8.13986 12.6555 8.30048 12.0359C8.30048 12.0359 11.2383 0.420151 11.2383 0.420151C11.2383 0.420151 11.2383 0.420166 11.2383 0.420166Z" fill="#F0FFF0" fill-rule="evenodd" transform="translate(453.428 56.716)" />
    <path id="Shape" d="M3.44653 14.4382C4.38611 13.5779 5.2142 12.5669 5.93423 11.4053C6.65381 10.2478 7.20303 9.17518 7.58133 8.19524C7.58133 8.19524 8.09305 8.31485 8.09305 8.31485C7.89389 8.85421 7.63647 9.45526 7.32843 10.1165C7.0159 10.7774 6.62473 11.4651 6.14395 12.1858C5.66241 12.9083 5.07285 13.6479 4.37555 14.4098C3.77533 15.0298 3.23672 15.4949 2.75751 15.8034C2.27597 16.1146 1.80768 16.2694 1.34888 16.2694C0.908936 16.2694 0.576019 16.1683 0.343567 15.9681C0.115662 15.7686 0 15.5014 0 15.1573C0 14.7781 0.150452 14.4423 0.448242 14.1524C0.748657 13.8621 1.121 13.7156 1.55869 13.7156C2.01755 13.7156 2.39734 13.7963 2.69592 13.9567C2.996 14.1172 3.24472 14.2777 3.44653 14.4382C3.44653 14.4382 3.44653 14.4382 3.44653 14.4382ZM10.6699 13.5078C10.6699 13.5078 9.46848 2.76114 9.46848 2.76114C9.34976 1.70097 9.08032 0.977646 8.6608 0.5844C8.2413 0.193409 7.68225 0 6.98499 0C6.56546 0 6.14404 0.0904655 5.72452 0.271381C5.30536 0.450798 4.91422 0.75964 4.55478 1.20022C4.19498 1.64079 3.86575 2.26077 3.56796 3.06168C3.56796 3.06168 2.81738 5.25281 2.81738 5.25281L3.3866 5.25281C3.3866 5.25281 3.77548 4.14267 3.77548 4.14267C4.05518 3.38303 4.30573 2.8024 4.52386 2.40271C4.74567 2.0015 4.95959 1.72974 5.16977 1.59196C5.38104 1.45192 5.58286 1.38152 5.78467 1.38152C6.04318 1.38152 6.25711 1.48257 6.42795 1.67977C6.59875 1.88188 6.72159 2.24221 6.80396 2.76114C6.80396 2.76114 8.00287 13.5078 8.00287 13.5078C8.12228 14.5476 8.4122 15.2667 8.87067 15.6698C9.33102 16.0676 9.87225 16.2694 10.4909 16.2694C10.9312 16.2694 11.3542 16.1808 11.7635 15.9991C12.1709 15.8182 12.5636 15.5093 12.9337 15.0688C13.3014 14.6282 13.6268 14.0082 13.9084 13.2073C13.9084 13.2073 14.6567 11.0162 14.6567 11.0162L14.0872 11.0162C14.0872 11.0162 13.6986 12.1263 13.6986 12.1263C13.2957 13.2667 12.9356 14.0146 12.6165 14.3625C12.296 14.7126 11.9895 14.8871 11.6875 14.8871C11.4283 14.8871 11.2144 14.7887 11.0457 14.5907C10.8734 14.3894 10.7498 14.0286 10.6701 13.5078C10.6701 13.5078 10.6699 13.5078 10.6699 13.5078ZM13.1867 1.83229C12.5676 2.39246 12.0283 3.04121 11.5679 3.78232C11.1099 4.52379 10.7186 5.26717 10.4 6.01849C10.0777 6.77018 9.81229 7.45375 9.59195 8.07372C9.59195 8.07372 8.9895 8.04269 8.9895 8.04269C9.13159 7.64527 9.28958 7.20054 9.46835 6.71076C9.64981 6.21835 9.87201 5.70395 10.1305 5.16384C10.3901 4.6222 10.7046 4.06847 11.075 3.49807C11.4428 2.92805 11.868 2.37204 12.3472 1.83231C12.927 1.17146 13.4478 0.699848 13.9082 0.422035C14.3667 0.139679 14.8459 1.52588e-05 15.3455 1.52588e-05C15.7254 1.52588e-05 16.0383 0.102974 16.2915 0.300541C16.5398 0.500381 16.6657 0.771778 16.6657 1.11204C16.6657 1.49242 16.5195 1.82664 16.2296 2.11657C15.9416 2.40499 15.5573 2.55336 15.0761 2.55336C14.6361 2.55336 14.2578 2.46669 13.9366 2.2956C13.616 2.12716 13.3673 1.97237 13.1867 1.83231C13.1867 1.83231 13.1867 1.83229 13.1867 1.83229Z" fill="#F0FFF0" fill-rule="evenodd" transform="translate(467.813 56.715)" />
    <path id="Path" d="M72.7397 89.3873C65.5098 93.7132 57.2069 96.0674 48.7457 96.1579C48.7457 96.1579 47.7158 96.1579 47.7158 96.1579C37.1959 95.9989 27.3491 90.9566 19.9431 81.9453C12.5341 72.9348 8.46124 60.9878 8.46124 48.3028C8.46124 35.6171 12.5341 23.6698 19.9431 14.6612C27.3491 5.6703 37.1959 0.629845 47.7158 0.473141C47.7158 0.473141 48.7457 0.473141 48.7457 0.473141C57.0282 0.584806 64.9282 3.74564 71.6209 9.59532C76.8537 14.1914 81.0153 20.1672 83.8553 27.0547C83.8553 27.0547 91.5062 27.0547 91.5062 27.0547C90.1837 24.3632 88.6462 21.7856 86.8403 19.3681C83.9308 15.4677 80.4828 12.0601 76.5676 9.21228C68.4438 3.29672 58.8193 0.114696 48.7457 0C48.7457 0 47.7158 0 47.7158 0C41.2468 0.0677528 35.0022 1.41255 29.1175 3.94509C23.4323 6.41176 18.3288 9.90795 13.9658 14.3254C9.57733 18.7629 6.13153 23.8938 3.73798 29.6103C1.25177 35.5486 0 41.8252 0 48.3028C0 54.7812 1.25177 61.0783 3.73798 66.9965C6.13153 72.7126 9.57733 77.8681 13.9658 82.281C18.3289 86.7204 23.4323 90.2151 29.1175 92.659C35.0022 95.2169 41.2468 96.539 47.7158 96.6041C47.7158 96.6041 48.7457 96.6041 48.7457 96.6041C57.2957 96.5163 65.6659 94.1375 72.9838 89.7681C78.291 86.5826 82.9334 82.3942 86.6597 77.4836C86.6597 77.4836 86.0716 77.4836 86.0716 77.4836C82.4153 82.2318 77.8961 86.2961 72.7397 89.3873C72.7397 89.3873 72.7397 89.3873 72.7397 89.3873Z" fill="#005C5C" fill-rule="evenodd" transform="translate(313.304 7.514)" />
    <path id="Path" d="M56.1683 29.6103C53.7729 23.8939 50.3271 18.7629 45.9613 14.3254C41.5778 9.886 36.4702 6.41592 30.7869 3.94509C24.9207 1.3959 18.6554 0 12.2113 0C12.2113 0 0 0 0 0L0 0.450409C0 0.450409 12.2113 0.450409 12.2113 0.450409C22.71 0.450409 32.5776 5.67293 39.9655 14.6611C47.37 23.6698 51.4681 35.6171 51.4681 48.3028C51.4681 60.9897 47.3741 72.9347 39.9655 81.9453C32.5776 90.9338 22.7085 96.1579 12.2113 96.1579C12.2113 96.1579 0 96.1579 0 96.1579L0 96.6041C0 96.6041 12.2113 96.6041 12.2113 96.6041C18.6576 96.6041 24.9226 95.2105 30.7869 92.659C36.4702 90.1901 41.5778 86.7204 45.9613 82.281C50.327 77.868 53.7729 72.7125 56.1683 66.9964C58.6541 61.0783 59.9044 54.7812 59.9044 48.3028C59.9044 41.8252 58.6541 35.5485 56.1683 29.6103C56.1683 29.6103 56.1683 29.6103 56.1683 29.6103Z" fill="#005C5C" fill-rule="evenodd" transform="translate(80.326 7.514)" />
    <path id="Shape" d="M53.9996 149.07C53.9996 150.816 55.4249 152.4 57.3245 152.4C59.2244 152.4 60.6497 150.816 60.6497 149.07C60.6497 147.168 59.2244 145.74 57.3245 145.74C55.4249 145.74 53.9996 147.326 53.9996 149.07C53.9996 149.07 53.9996 149.07 53.9996 149.07ZM66.5095 99.1151C66.5095 98.0053 67.2994 97.2128 68.4072 97.2128C69.5176 97.2128 70.3075 98.0053 70.3075 99.1151C70.3075 100.225 69.5176 101.018 68.4072 101.018C67.4597 101.018 66.5095 100.225 66.5095 99.1151C66.5095 99.1151 66.5095 99.1151 66.5095 99.1151ZM66.5095 110.374C66.5095 109.265 67.2994 108.474 68.4072 108.474C69.5176 108.474 70.3075 109.265 70.3075 110.374C70.3075 111.485 69.5176 112.277 68.4072 112.277C67.4597 112.277 66.5095 111.485 66.5095 110.374C66.5095 110.374 66.5095 110.374 66.5095 110.374ZM66.5095 121.636C66.5095 120.524 67.2994 119.732 68.4072 119.732C69.5176 119.732 70.3075 120.524 70.3075 121.636C70.3075 122.746 69.5176 123.537 68.4072 123.537C67.4597 123.537 66.5095 122.746 66.5095 121.636C66.5095 121.636 66.5095 121.636 66.5095 121.636ZM28.0301 57.2505C28.0301 57.2505 11.5604 83.8922 3.32518 97.371C6.8084 96.2612 10.1355 96.737 10.6102 96.8933C15.835 97.8467 20.9011 100.223 25.0178 103.557C32.7798 109.582 37.3715 118.621 38.3217 128.293C39.1132 136.382 38.9571 145.421 45.7629 150.97C53.8393 157.632 67.4596 154.778 71.5755 145.104C73.6361 140.348 73.3171 135.272 73.1591 130.198C72.8447 123.697 72.6844 117.194 72.5257 110.692C72.2109 98.3225 71.7343 85.9509 71.5755 73.5835C71.2592 61.2126 71.1008 48.8456 70.7841 36.474C70.628 30.6072 70.4677 24.5781 70.628 18.5536C70.7841 13.9552 71.8926 9.9893 76.8003 8.72284C78.4475 8.30914 80.5655 7.81293 82.6628 7.96281C82.6628 7.96281 82.6628 7.48705 82.6628 7.48705C82.6628 7.48705 74.7057 7.48705 74.7057 7.48705C68.578 7.48705 66.5095 10.5866 66.5095 22.8359C66.0264 57.6952 65.3106 92.6658 64.1344 127.502C63.9741 131.466 64.6095 136.698 62.7099 140.348C60.966 143.836 55.5828 144.787 53.0479 141.457C49.4063 136.698 51.781 124.964 51.4666 119.253C50.6751 107.045 47.8227 95.9444 42.4399 83.8922C37.2128 71.8393 28.0301 57.2505 28.0301 57.2505C28.0301 57.2505 28.0301 57.2505 28.0301 57.2505ZM2.20382e-11 99.5909C2.20382e-11 99.5909 17.5767 59.6267 22.1703 49.7945C22.645 48.6851 24.2283 48.2109 25.1784 49.0019C25.1784 49.0019 28.0301 51.0651 28.0301 51.0651C28.978 51.6991 29.1386 52.807 28.5029 53.7585C22.9618 62.1634 -1.84547e-05 99.5909 -1.84547e-05 99.5909C-1.84547e-05 99.5909 2.20382e-11 99.5909 2.20382e-11 99.5909ZM74.5844 138.286L74.5844 131.784L76.484 131.784C76.484 131.784 76.484 138.286 76.484 138.286C76.484 148.594 68.0927 157 57.7976 157C57.7976 157 57.3244 157 57.3244 157L57.3244 155.095C57.3244 155.095 57.7995 155.095 57.7995 155.095C66.9845 155.095 74.5844 147.485 74.5844 138.286C74.5844 138.286 74.5844 138.286 74.5844 138.286ZM65.4009 40.4395L59.8579 40.4395C59.8579 40.4395 59.8579 45.1946 59.8579 45.1946C61.285 45.6719 62.2348 46.941 62.2348 48.3676C62.2348 49.7945 61.2824 51.0651 59.8579 51.5409C59.8579 51.5409 59.8579 58.1979 59.8579 58.1979C61.7575 58.6737 63.1827 60.2615 63.1827 62.3247C63.1827 64.3833 61.7575 65.9692 59.8579 66.4469C59.8579 66.4469 59.8579 74.6913 59.8579 74.6913C61.285 75.1694 62.2348 76.4355 62.2348 77.8628C62.2348 79.2916 61.2824 80.5581 59.8579 81.0361C59.8579 81.0361 59.8579 92.2949 59.8579 92.2949L63.818 92.2949L63.818 94.3585L59.8579 94.3585L59.8579 95.3081L57.9598 95.3081C57.9598 95.3081 57.9598 81.1943 57.9598 81.1943C56.533 80.7185 55.5828 79.4502 55.5828 78.0214C55.5828 76.5967 56.533 75.3261 57.9598 74.8526C57.9598 74.8526 57.9598 66.6032 57.9598 66.6032C56.0579 66.1297 54.6327 64.5445 54.6327 62.4829C54.6327 60.4197 56.0602 58.8341 57.9598 58.3583C57.9598 58.3583 57.9598 51.6991 57.9598 51.6991C56.533 51.2218 55.5828 49.9549 55.5828 48.5261C55.5828 47.0992 56.533 45.8308 57.9598 45.355C57.9598 45.355 57.9598 37.7423 57.9598 37.7423L59.8579 37.7423L59.8579 38.6939L65.4009 38.6939L65.4009 40.4395L65.4009 40.4395ZM77.2777 3.49052L77.4364 3.49052L77.4364 3.96629L84.4044 3.96629C84.4044 3.96629 84.4044 1.5859 84.4044 1.5859C84.4044 0.636258 83.613 0 82.8211 0C82.8211 0 78.861 0 78.861 0C77.913 0 77.2777 0.793331 77.2777 1.5859C77.2777 1.5859 76.6443 1.5859 76.6443 1.5859C69.5199 1.5859 63.6593 7.45226 63.6593 14.5896C63.6593 14.5896 63.3411 29.0198 63.3411 29.0198L61.9177 29.0198L61.9177 30.9226L65.4009 30.9226L65.4009 29.0198L65.2429 29.0198C65.2429 29.0198 65.5597 14.5896 65.5597 14.5896C65.5597 8.40606 70.628 3.49052 76.6442 3.49052C76.6442 3.49052 77.2777 3.49052 77.2777 3.49052L77.2777 3.49052ZM74.2696 125.917L78.2279 125.917C78.2279 125.917 78.2279 121.636 78.2279 121.636C75.5361 121.158 73.6361 118.939 73.6361 116.085C73.6361 113.387 75.6926 111.011 78.2279 110.533C78.2279 110.533 78.2279 107.998 78.2279 107.998C76.3275 107.521 74.9026 105.935 74.9026 103.872C74.9026 101.81 76.3275 100.225 78.2279 99.7495C78.2279 99.7495 78.2279 94.2003 78.2279 94.2003C76.3275 93.7246 74.9026 91.9804 74.9026 89.9172C74.9026 87.8563 76.3275 86.1137 78.2279 85.6364C78.2279 85.6364 78.2279 81.8306 78.2279 81.8306L72.6844 81.8306L72.6844 79.9283L74.426 79.9283C74.426 79.9283 74.426 55.3437 74.426 55.3437C72.0899 54.679 72.1761 51.022 74.426 50.2726C74.426 50.2726 74.426 33.7787 74.426 33.7787L72.6844 33.7787L72.6844 31.8757L74.426 31.8757L74.426 30.6073L76.3275 30.6073L76.3275 31.8757L78.0691 31.8757L78.0691 33.7787L76.3275 33.7787C76.3275 33.7787 76.3275 50.1117 76.3275 50.1117C77.4338 50.4289 78.0691 51.5409 78.0691 52.6488C78.0691 53.7585 77.2777 54.8706 76.3275 55.1874C76.3275 55.1874 76.3275 79.926 76.3275 79.926L78.0691 79.926L78.0691 78.9745L79.9695 78.9745C79.9695 78.9745 79.9695 85.6364 79.9695 85.6364C81.8672 86.1114 83.2939 87.8563 83.2939 89.9172C83.2939 91.9762 81.8672 93.7245 79.9695 94.2003C79.9695 94.2003 79.9695 99.7472 79.9695 99.7472C81.8672 100.223 83.2939 101.81 83.2939 103.87C83.2939 105.933 81.8672 107.519 79.9695 107.997C79.9695 107.997 79.9695 110.533 79.9695 110.533C82.6586 111.009 84.5627 113.229 84.5627 116.082C84.5627 118.778 82.5025 121.158 79.9695 121.634C79.9695 121.634 79.9695 128.769 79.9695 128.769L78.0691 128.769L78.0691 127.818L74.1093 127.818L74.1093 125.917L74.2696 125.917L74.2696 125.917Z" fill="#F8D4B4" fill-rule="evenodd" />
  </g>
</svg>