<?xml version="1.0" encoding="utf-8"?>
<svg width="484.479" height="156.774" viewBox="0 0 484.479 156.774" fill="none" xmlns="http://www.w3.org/2000/svg">
  <g id="logo_white">
    <path id="Shape" d="M58.3703 96.0178L28.7369 0L20.2757 0L25.0008 15.3105C25.0008 15.3105 8.48164 89.5038 8.48164 89.5038C7.45361 93.3324 3.9825 96.0178 0 96.0178C0 96.0178 0 96.4656 0 96.4656L14.3928 96.4656L14.3928 96.0178L7.47627 96.0178L8.92987 89.5941L14.5247 64.4595L40.1511 64.4595L50.0447 96.4656L61.3931 96.4656L61.3931 96.0178L58.3703 96.0178L58.3703 96.0178ZM14.6151 64.0108L25.27 16.1824L40.0192 64.0108L14.6151 64.0108L14.6151 64.0108Z" fill="#FFFFFF" fill-rule="evenodd" transform="translate(241.374 7.503)" />
    <path id="Path" d="M73.6335 0.448247L73.6335 0L62.2651 0L36.8175 82.498L11.3684 1.85966e-05L0 1.85966e-05L0 0.448265L2.97711 0.448265L2.97711 96.0152L0 96.0152L0 96.4634L17.5907 96.4634C17.5907 96.4634 17.6149 96.0152 17.6149 96.0152C9.66991 95.5692 3.42538 88.9648 3.42538 80.9764C3.42538 80.9764 3.42538 1.72351 3.42538 1.72351L32.6536 96.4634L41.1379 96.4634L37.0643 83.2816L62.2197 1.72351L62.2197 96.0152L59.2422 96.0152L59.2422 96.4634L73.6335 96.4634L73.6335 96.0152L70.6583 96.0152L70.6583 0.448284L73.6335 0.448284L73.6335 0.448247Z" fill="#FFFFFF" fill-rule="evenodd" transform="translate(155.449 7.504)" />
    <path id="Shape" d="M6.10352e-05 14.8275C6.10352e-05 13.5109 0.195465 12.1578 0.584412 10.761C0.968292 9.36648 1.53177 8.03374 2.26669 6.75453C3.00049 5.48323 3.89493 4.33705 4.94809 3.31752C5.99857 2.30516 7.17725 1.49482 8.4838 0.900433C9.79071 0.299259 11.2193 0 12.7722 0C15.0369 0 16.8084 0.625282 18.0833 1.87021C19.3608 3.11702 20 4.89451 20 7.20569C20 8.51958 19.8003 9.87118 19.4033 11.2533C19.0059 12.6414 18.439 13.97 17.7009 15.2436C16.9659 16.5209 16.0727 17.6671 15.0222 18.6821C13.9698 19.6994 12.7868 20.5048 11.4695 21.1037C10.1544 21.7022 8.72742 22 7.19809 22C4.93143 22 3.16608 21.3785 1.89935 20.1317C0.632233 18.8849 0 17.1198 0 14.8275C0 14.8275 6.10352e-05 14.8275 6.10352e-05 14.8275ZM12.4969 0.539352C11.5577 0.539352 10.6312 0.814117 9.72592 1.36176C8.81406 1.90939 7.97369 2.66773 7.19818 3.63374C6.4227 4.59937 5.73798 5.70484 5.14511 6.95087C4.55499 8.19579 4.08844 9.52628 3.75208 10.9415C3.41608 12.3565 3.24576 13.7793 3.24576 15.2145C3.24576 17.1684 3.63889 18.6968 4.42676 19.8037C5.21075 20.9088 6.22726 21.4629 7.47586 21.4629C8.4147 21.4629 9.33698 21.1877 10.2446 20.6401C11.1544 20.0928 11.9968 19.336 12.7723 18.3681C13.5478 17.4029 14.2306 16.2974 14.825 15.0528C15.4178 13.806 15.8817 12.4752 16.2184 11.0625C16.5525 9.64575 16.7243 8.22028 16.7243 6.78691C16.7243 4.83304 16.3296 3.30543 15.5433 2.19809C14.7578 1.09074 13.7428 0.539333 12.4969 0.539333C12.4969 0.539333 12.4969 0.539352 12.4969 0.539352Z" fill="#FFFFFF" fill-rule="evenodd" transform="translate(345 51)" />
    <path id="Shape" d="M2.73071 15.8223C2.73071 15.8223 5.66705 4.19415 5.66705 4.19415C5.78836 3.71339 5.89078 3.23 5.97922 2.74054C6.0722 2.25109 6.10056 1.79869 6.0722 1.392C6.0412 0.982677 5.89078 0.64743 5.62167 0.386276C5.35446 0.127007 4.9187 0 4.31812 0C3.68051 0 3.03308 0.196911 2.38565 0.597916C1.73557 0.996647 1.19055 1.82777 0.750641 3.08371C0.750641 3.08371 0 5.27205 0 5.27205L0.571472 5.27205C0.571472 5.27205 0.96228 4.16315 0.96228 4.16315C1.38177 2.98544 1.76239 2.17926 2.09915 1.75143C2.44083 1.32169 2.82974 1.10815 3.26965 1.10815C3.59018 1.10815 3.7897 1.21058 3.86758 1.4226C3.94583 1.6301 3.96432 1.88068 3.91483 2.17094C3.86343 2.46083 3.7977 2.72578 3.71793 2.96652C3.71793 2.96652 0.121704 15.8222 0.121704 15.8222L2.73071 15.8222L2.73071 15.8223ZM4.10837 9.58791C4.80569 7.79037 5.48636 6.28119 6.1478 5.06193C6.80582 3.84454 7.4559 2.85999 8.09497 2.11163C8.73447 1.36102 9.38834 0.822433 10.0569 0.49324C10.7274 0.162163 11.4221 1.90735e-05 12.1417 1.90735e-05C13.0772 1.90735e-05 13.7231 0.223763 14.0746 0.674278C14.4242 1.12026 14.578 1.68984 14.5391 2.38112C14.4983 3.06937 14.3603 3.78333 14.1199 4.52337C14.1199 4.52337 11.2123 13.2745 11.2123 13.2745C11.0332 13.8153 10.9576 14.2594 10.9883 14.6087C11.017 14.9583 11.2513 15.1348 11.6912 15.1348C12.0718 15.1348 12.446 14.9258 12.8164 14.5036C13.1864 14.0822 13.5791 13.2745 14.0005 12.0779C14.0005 12.0779 14.3894 10.9674 14.3894 10.9674L14.9586 10.9674C14.9586 10.9674 14.2079 13.155 14.2079 13.155C13.9305 13.9945 13.5832 14.6336 13.1739 15.0739C12.7668 15.5138 12.3371 15.8158 11.8866 15.9866C11.4364 16.1571 11.0029 16.241 10.5834 16.241C10.1019 16.241 9.70953 16.1631 9.39661 16.001C9.08817 15.8449 8.85385 15.6325 8.6955 15.3755C8.47327 15.0138 8.40332 14.5451 8.48386 13.9635C8.56436 13.3852 8.72461 12.7457 8.9631 12.0469C8.9631 12.0469 11.8106 3.47453 11.8106 3.47453C11.9115 3.19521 11.9954 2.85999 12.068 2.47144C12.1352 2.08064 12.1212 1.73103 12.0207 1.42262C11.9213 1.1142 11.6318 0.955845 11.1526 0.955845C10.6718 0.955845 10.162 1.1675 9.62488 1.58703C9.08405 2.0043 8.52277 2.59881 7.94525 3.37022C7.36548 4.13897 6.79587 5.05968 6.23615 6.12701C5.67905 7.1966 5.14233 8.37431 4.63251 9.6635C4.12302 10.9531 3.65778 12.3266 3.23862 13.7843C3.23862 13.7843 4.10828 9.58791 4.10828 9.58791C4.10828 9.58791 4.10837 9.58791 4.10837 9.58791Z" fill="#FFFFFF" fill-rule="evenodd" transform="translate(365.938 56.637)" />
    <path id="Shape" d="M2.547 17.8311C2.547 17.8311 7.6131 0 7.6131 0C7.23062 0.139851 6.80692 0.238491 6.34018 0.300091C5.86923 0.36018 5.39453 0.39912 4.91565 0.419533C4.91565 0.419533 0.270203 16.6038 0.270203 16.6038C0.0302124 17.4244 -0.0503235 18.1542 0.0302124 18.7918C0.109985 19.4313 0.362823 19.9242 0.792542 20.2764C1.22266 20.6238 1.84555 20.8003 2.66568 20.8003C3.58487 20.8003 4.39105 20.5602 5.08005 20.081C5.76865 19.5995 6.33408 18.7113 6.77176 17.4138C6.77176 17.4138 7.40332 15.5244 7.40332 15.5244L6.83148 15.5244C6.83148 15.5244 6.41232 16.6923 6.41232 16.6923C5.97391 17.932 5.52982 18.7423 5.08005 19.1229C4.62952 19.5012 4.18506 19.6898 3.74738 19.6898C3.30746 19.6898 2.95181 19.5458 2.68192 19.2563C2.41092 18.9683 2.36786 18.4917 2.54697 17.8311C2.54697 17.8311 2.547 17.8311 2.547 17.8311ZM10.1605 4.97423L10.0702 5.57669L0.749481 5.57669L0.897278 4.97423L10.1605 4.97423L10.1605 4.97423Z" fill="#FFFFFF" fill-rule="evenodd" transform="translate(391.057 52.079)" />
    <path id="Shape" d="M2.60562 23.8273C2.60562 23.8273 9.59055 0 9.59055 0C8.85016 0.378323 8.04169 0.674648 7.16409 0.884407C6.28232 1.09416 5.29321 1.20718 4.19492 1.22947C4.19492 1.22947 4.01611 1.85876 4.01611 1.85876C4.99274 1.85876 5.60956 2.02127 5.86014 2.33801C6.10922 2.65663 6.13416 3.15854 5.93423 3.83698C5.93423 3.83698 0 23.8273 0 23.8273L2.60562 23.8273L2.60562 23.8273ZM3.44656 19.3916C4.20551 17.2944 4.92889 15.518 5.61792 14.0561C6.30881 12.6002 6.99326 11.424 7.67169 10.5358C8.35086 9.64763 9.05197 9.00172 9.76935 8.60296C10.4886 8.20196 11.2377 8.00278 12.0185 8.00278C12.9566 8.00278 13.6022 8.22879 13.9495 8.67931C14.301 9.12756 14.4555 9.7013 14.4167 10.4001C14.3751 11.0993 14.2375 11.8088 13.9967 12.5284C13.9967 12.5284 11.0895 21.2795 11.0895 21.2795C10.9285 21.7995 10.8571 22.2395 10.8798 22.5997C10.9002 22.9591 11.1284 23.1383 11.5688 23.1383C11.9486 23.1383 12.3251 22.9308 12.6928 22.5071C13.0613 22.0872 13.4559 21.2795 13.8754 20.0829C13.8754 20.0829 14.2662 18.9725 14.2662 18.9725L14.8354 18.9725C14.8354 18.9725 14.0871 21.1601 14.0871 21.1601C13.8055 21.9995 13.4623 22.6386 13.0534 23.0789C12.6441 23.5189 12.2121 23.8231 11.7638 23.9917C11.3133 24.1621 10.8798 24.246 10.4602 24.246C9.66049 24.246 9.10077 24.068 8.78214 23.7078C8.46161 23.3499 8.32556 22.8503 8.37921 22.2085C8.42645 21.5716 8.58105 20.8516 8.84222 20.0519C8.84222 20.0519 11.6874 11.4795 11.6874 11.4795C11.7884 11.1791 11.8787 10.8317 11.9569 10.4292C12.0374 10.032 12.0227 9.68653 11.9119 9.39701C11.8031 9.10674 11.5087 8.96086 11.0294 8.96086C10.5302 8.96086 9.99533 9.18687 9.42615 9.63512C8.8562 10.0856 8.27039 10.7293 7.67169 11.5702C7.07376 12.4089 6.4834 13.4169 5.90402 14.5969C5.32388 15.7772 4.76868 17.0887 4.24219 18.5382C3.70966 19.9861 3.21643 21.5512 2.75757 23.2286C2.75757 23.2286 3.44659 19.3916 3.44659 19.3916C3.44659 19.3916 3.44656 19.3916 3.44656 19.3916Z" fill="#FFFFFF" fill-rule="evenodd" transform="translate(399.779 48.632)" />
    <path id="Path" d="M2.15958 9.02251C3.27792 8.64268 4.29163 8.26773 5.20023 7.89774C6.10883 7.52999 6.83261 7.13314 7.37381 6.71361C8.09344 6.13572 8.66302 5.43689 9.08255 4.61634C9.50168 3.79617 9.71371 2.89741 9.71371 1.91888C9.71371 1.33872 9.67255 0.968708 9.59241 0.810349C9.50961 0.650085 9.39096 0.569588 9.23221 0.569588C8.73294 0.569588 8.19211 0.789936 7.6142 1.22988C7.03442 1.66982 6.46484 2.27189 5.90549 3.04329C5.34424 3.81243 4.8302 4.68626 4.36154 5.66477C3.89288 6.64405 3.51794 7.68833 3.23679 8.79648C2.9567 9.9069 2.81686 11.0113 2.81686 12.1089C2.81686 13.129 3.0062 13.8633 3.38681 14.3116C3.76514 14.7613 4.26706 14.9858 4.88541 14.9858C5.60541 14.9858 6.36435 14.7677 7.16373 14.3278C7.9642 13.8879 8.74094 13.1085 9.50174 11.9898C9.50174 11.9898 9.98099 12.2283 9.98099 12.2283C9.60077 12.8905 9.103 13.5281 8.48389 14.1487C7.86102 14.7677 7.17014 15.2738 6.39911 15.662C5.62958 16.0505 4.81546 16.2459 3.95639 16.2459C3.15854 16.2459 2.45743 16.0838 1.85913 15.7667C1.26083 15.4462 0.80011 14.9711 0.479218 14.3422C0.161011 13.7129 0 12.94 0 12.0185C0 11.1594 0.161011 10.1972 0.479218 9.12568C0.80011 8.06023 1.25668 6.98912 1.84479 5.92026C2.43478 4.85066 3.13812 3.86798 3.95639 2.9692C4.77655 2.06702 5.68591 1.3493 6.68484 0.810329C7.68188 0.271748 8.7515 0 9.89026 0C10.5112 0 11.0358 0.165169 11.4637 0.495491C11.893 0.824688 12.1092 1.32018 12.1092 1.9782C12.1092 2.77795 11.8745 3.52214 11.4036 4.21115C10.9349 4.90242 10.3158 5.53134 9.54483 6.09903C8.77832 6.67011 7.94305 7.17431 7.04504 7.61462C6.14401 8.05457 5.26602 8.4344 4.40884 8.75151C3.54712 9.0724 2.78854 9.33318 2.12863 9.53273C2.12863 9.53273 2.15964 9.0225 2.15964 9.0225C2.15964 9.0225 2.15958 9.02251 2.15958 9.02251Z" fill="#FFFFFF" fill-rule="evenodd" transform="translate(416.471 56.634)" />
    <path id="Path" d="M17.8042 0.210144C17.6042 0.729828 17.3415 1.48461 17.0105 2.47144C16.6794 3.46281 16.3562 4.74748 16.0357 6.32277C16.0357 6.32277 15.4355 6.32277 15.4355 6.32277C15.4949 6.04309 15.5421 5.75509 15.5708 5.45499C15.6014 5.1549 15.6143 4.87749 15.6143 4.61632C15.6143 3.8778 15.4703 3.20164 15.1801 2.59088C14.8905 1.98237 14.4358 1.49293 13.8167 1.12443C13.198 0.75441 12.3779 0.569588 11.3601 0.569588C10.1612 0.569588 9.16 0.878002 8.36441 1.49709C7.56393 2.11768 7.1629 3.07806 7.1629 4.37746C7.1629 5.13639 7.35001 5.83976 7.71851 6.48909C8.08853 7.13879 8.55719 7.76014 9.12903 8.34824C9.69446 8.93821 10.3071 9.52631 10.9568 10.1163C11.6042 10.7067 12.2154 11.3091 12.7831 11.9278C13.3523 12.5492 13.821 13.2045 14.1936 13.8894C14.5637 14.5803 14.7485 15.3456 14.7485 16.1843C14.7485 17.2222 14.5164 18.113 14.0576 18.8531C13.5972 19.5912 12.9985 20.1959 12.2585 20.6665C11.5181 21.1355 10.7062 21.4855 9.8158 21.7157C8.92725 21.9436 8.04132 22.0588 7.16293 22.0588C6.36356 22.0588 5.69534 21.9848 5.15451 21.8366C4.61783 21.6847 4.1673 21.4995 3.8075 21.2814C3.44809 21.0592 3.14948 20.8623 2.9072 20.6808C2.68686 20.5002 2.48163 20.383 2.29456 20.3191C2.10519 20.2594 1.9487 20.2311 1.82779 20.2311C1.56815 20.2311 1.35461 20.3664 1.18414 20.6362C1.0152 20.9053 0.819794 21.3105 0.600189 21.8491C0.600189 21.8491 0 21.8491 0 21.8491C0.180664 21.4091 0.370026 20.9012 0.569183 20.3191C0.768738 19.7439 0.990601 18.9971 1.23132 18.0903C1.46982 17.1791 1.73892 16.0362 2.0394 14.6566C2.0394 14.6566 2.63959 14.6566 2.63959 14.6566C2.55981 15.0758 2.48724 15.4806 2.42795 15.8695C2.36859 16.2599 2.3497 16.6651 2.36859 17.0846C2.42795 18.4441 2.84744 19.5111 3.6268 20.2904C4.40613 21.0697 5.61481 21.4601 7.254 21.4601C8.55304 21.4601 9.61203 21.1623 10.4307 20.5599C11.2512 19.9612 11.662 19.0159 11.662 17.7143C11.662 16.8733 11.4935 16.125 11.1643 15.4666C10.8355 14.8063 10.4061 14.1921 9.87549 13.6244C9.34711 13.0526 8.78586 12.4993 8.19778 11.9584C7.60739 11.4198 7.0484 10.8563 6.51965 10.2667C5.98938 9.6786 5.55963 9.02021 5.23044 8.30286C4.90161 7.58323 4.73721 6.76307 4.73721 5.84541C4.73721 4.88314 4.92618 4.04219 5.30679 3.31237C5.68512 2.58292 6.18857 1.97366 6.81976 1.48459C7.44943 0.993252 8.15204 0.625118 8.9314 0.374168C9.71072 0.127743 10.5109 0 11.331 0C12.1682 0 12.8897 0.10091 13.4884 0.30048C14.0863 0.50193 14.6683 0.818653 15.2273 1.25859C15.4666 1.43737 15.6677 1.57494 15.826 1.66526C15.9863 1.75409 16.114 1.79943 16.2164 1.79943C16.4938 1.79943 16.8249 1.26841 17.204 0.210144C17.204 0.210144 17.8042 0.210144 17.8042 0.210144C17.8042 0.210144 17.8042 0.210144 17.8042 0.210144Z" fill="#FFFFFF" fill-rule="evenodd" transform="translate(436.012 50.82)" />
    <path id="Shape" d="M3.6842 15.286C3.36368 15.286 3.10892 15.1174 2.91959 14.7757C2.72986 14.4367 2.63574 13.8361 2.63574 12.9767C2.63574 11.9199 2.76086 10.8155 3.00992 9.66579C3.26093 8.51643 3.59805 7.4045 4.02966 6.32507C4.45935 5.24563 4.93866 4.27127 5.46698 3.40311C5.99759 2.53345 6.54645 1.84481 7.11603 1.3323C7.68561 0.824703 8.23062 0.567703 8.74838 0.567703C9.39017 0.567703 9.84674 0.89463 10.1306 1.54433C10.408 2.19366 10.4779 3.04933 10.3381 4.10609C10.3381 4.10609 10.6673 3.92543 10.6673 3.92543C10.8896 2.68764 10.8132 1.72498 10.4428 1.03446C10.075 0.345455 9.53839 0 8.83954 0C7.9408 0 7.05411 0.279682 6.1871 0.839062C5.31927 1.39806 4.51318 2.13846 3.77499 3.05575C3.03687 3.97493 2.38107 4.99654 1.81339 6.11529C1.24152 7.23365 0.797424 8.35617 0.47699 9.48512C0.15802 10.616 0 11.6587 0 12.6168C0 13.6777 0.234344 14.5455 0.705231 15.224C1.17163 15.9046 1.87689 16.2441 2.81461 16.2441C3.61435 16.2441 4.40393 15.958 5.18552 15.3906C5.96262 14.8188 6.73209 13.8939 7.4903 12.6025C8.24924 11.3133 9.00964 9.6106 9.76855 7.49294C9.76855 7.49294 10.2788 4.25653 10.2788 4.25653C9.95792 5.67764 9.52783 7.04506 8.98926 8.36034C8.45068 9.68281 7.86255 10.8609 7.22122 11.8995C6.58173 12.9374 5.95279 13.7624 5.33145 14.3709C4.71234 14.9817 4.16586 15.286 3.68433 15.286C3.68433 15.286 3.6842 15.286 3.6842 15.286ZM11.2383 0.419567C11.7175 0.399158 12.1949 0.360237 12.6741 0.300129C13.1571 0.240799 13.5948 0.137985 13.9943 3.8147e-05C13.9943 3.8147e-05 10.2499 13.2458 10.2499 13.2458C10.2061 13.4272 10.1532 13.6615 10.0852 13.9533C10.0133 14.2432 10.0133 14.5066 10.0852 14.7474C10.1532 14.9859 10.3588 15.1046 10.696 15.1046C11.0969 15.1046 11.4897 14.885 11.868 14.4473C12.2463 14.0089 12.6269 13.2068 13.0052 12.0492C13.0052 12.0492 13.3647 10.9391 13.3647 10.9391L13.9342 10.9391C13.9342 10.9391 13.1859 13.1286 13.1859 13.1286C12.9062 13.9265 12.571 14.5516 12.1805 14.9998C11.7917 15.4504 11.3864 15.7709 10.9673 15.958C10.5478 16.1496 10.1385 16.2441 9.74008 16.2441C8.96075 16.2441 8.41156 15.9871 8.0903 15.4647C7.83179 15.0085 7.75922 14.4715 7.88132 13.863C8 13.2522 8.13983 12.6372 8.30045 12.0185C8.30045 12.0185 11.2383 0.419548 11.2383 0.419548C11.2383 0.419548 11.2383 0.419567 11.2383 0.419567Z" fill="#FFFFFF" fill-rule="evenodd" transform="translate(453.428 56.634)" />
    <path id="Shape" d="M3.44653 14.4174C4.38611 13.5583 5.2142 12.5488 5.93423 11.3889C6.65381 10.2331 7.20303 9.16196 7.58133 8.18343C7.58133 8.18343 8.09305 8.30287 8.09305 8.30287C7.89389 8.84146 7.63647 9.44164 7.32843 10.1019C7.0159 10.7618 6.62473 11.4486 6.14395 12.1682C5.66241 12.8897 5.07285 13.6282 4.37555 14.389C3.77533 15.0081 3.23672 15.4726 2.75751 15.7807C2.27597 16.0913 1.80768 16.2459 1.34888 16.2459C0.908936 16.2459 0.576019 16.145 0.343567 15.9451C0.115662 15.7459 0 15.479 0 15.1355C0 14.7568 0.150452 14.4215 0.448242 14.132C0.748657 13.8422 1.121 13.6959 1.55869 13.6959C2.01755 13.6959 2.39734 13.7764 2.69592 13.9366C2.996 14.0969 3.24472 14.2571 3.44653 14.4174C3.44653 14.4174 3.44653 14.4174 3.44653 14.4174ZM10.6699 13.4884C10.6699 13.4884 9.46844 2.75715 9.46844 2.75715C9.34973 1.69852 9.08029 0.976238 8.6608 0.583557C8.24127 0.19313 7.68225 0 6.98495 0C6.56546 0 6.14401 0.0903358 5.72452 0.270988C5.30536 0.450146 4.91418 0.758545 4.55478 1.19849C4.19498 1.63843 3.86575 2.25751 3.56796 3.05727C3.56796 3.05727 2.81738 5.24524 2.81738 5.24524L3.3866 5.24524C3.3866 5.24524 3.77545 4.1367 3.77545 4.1367C4.05518 3.37815 4.30569 2.79836 4.52383 2.39924C4.74567 1.99861 4.95959 1.72725 5.16977 1.58967C5.38101 1.44982 5.58286 1.37953 5.78467 1.37953C6.04318 1.37953 6.25711 1.48044 6.42792 1.67735C6.59872 1.87917 6.72159 2.23898 6.80396 2.75715C6.80396 2.75715 8.00284 13.4884 8.00284 13.4884C8.12228 14.5266 8.41217 15.2447 8.87067 15.6472C9.33099 16.0445 9.87222 16.2459 10.4909 16.2459C10.9312 16.2459 11.3542 16.1575 11.7635 15.9761C12.1709 15.7954 12.5636 15.487 12.9337 15.047C13.3014 14.6071 13.6268 13.988 13.9084 13.1883C13.9084 13.1883 14.6567 11.0003 14.6567 11.0003L14.0872 11.0003C14.0872 11.0003 13.6986 12.1088 13.6986 12.1088C13.2957 13.2476 12.9356 13.9944 12.6165 14.3418C12.296 14.6914 11.9895 14.8656 11.6875 14.8656C11.4283 14.8656 11.2143 14.7673 11.0457 14.5697C10.8734 14.3686 10.7498 14.0084 10.6701 13.4884C10.6701 13.4884 10.6699 13.4884 10.6699 13.4884ZM13.1867 1.82965C12.5676 2.38902 12.0283 3.03683 11.5679 3.77687C11.1099 4.51727 10.7187 5.25958 10.4001 6.00982C10.0777 6.76043 9.81229 7.44301 9.59195 8.06209C9.59195 8.06209 8.9895 8.03111 8.9895 8.03111C9.13162 7.63426 9.28958 7.19016 9.46838 6.7011C9.64981 6.20938 9.87201 5.69574 10.1305 5.1564C10.3901 4.61554 10.7046 4.0626 11.075 3.49303C11.4428 2.92384 11.868 2.36863 12.3472 1.82967C12.927 1.16977 13.4478 0.698845 13.9082 0.421432C14.3667 0.139481 14.8459 1.90735e-05 15.3455 1.90735e-05C15.7254 1.90735e-05 16.0383 0.102829 16.2915 0.30011C16.5399 0.49966 16.6657 0.770668 16.6657 1.11044C16.6657 1.49027 16.5195 1.82401 16.2296 2.11353C15.9416 2.40153 15.5573 2.54969 15.0761 2.54969C14.6361 2.54969 14.2578 2.46313 13.9366 2.2923C13.616 2.1241 13.3673 1.96952 13.1867 1.82967C13.1867 1.82967 13.1867 1.82965 13.1867 1.82965Z" fill="#FFFFFF" fill-rule="evenodd" transform="translate(467.813 56.634)" />
    <path id="Path" d="M72.7397 89.2585C65.5098 93.5781 57.2069 95.929 48.7457 96.0193C48.7457 96.0193 47.7158 96.0193 47.7158 96.0193C37.1959 95.8605 27.3491 90.8255 19.9431 81.8272C12.5341 72.8296 8.46124 60.8999 8.46124 48.2332C8.46124 35.5658 12.5341 23.6357 19.9431 14.64C27.3491 5.66213 37.1959 0.628937 47.7158 0.472459C47.7158 0.472459 48.7457 0.472459 48.7457 0.472459C57.0282 0.583963 64.9282 3.74024 71.6209 9.58149C76.8537 14.171 81.0153 20.1381 83.8553 27.0157C83.8553 27.0157 91.5062 27.0157 91.5062 27.0157C90.1837 24.3281 88.6462 21.7542 86.8403 19.3402C83.9308 15.4454 80.4828 12.0427 76.5676 9.199C68.4438 3.29197 58.8193 0.11453 48.7457 0C48.7457 0 47.7158 0 47.7158 0C41.2468 0.0676551 35.0022 1.41051 29.1175 3.9394C23.4323 6.40252 18.3288 9.89367 13.9658 14.3048C9.57733 18.7359 6.13153 23.8594 3.73798 29.5676C1.25177 35.4973 0 41.7649 0 48.2332C0 54.7022 1.25177 60.9902 3.73798 66.8999C6.13153 72.6078 9.57733 77.7559 13.9658 82.1624C18.3289 86.5954 23.4323 90.0851 29.1175 92.5255C35.0022 95.0797 41.2468 96.3999 47.7158 96.4649C47.7158 96.4649 48.7457 96.4649 48.7457 96.4649C57.2957 96.3772 65.6659 94.0018 72.9838 89.6387C78.291 86.4578 82.9334 82.2754 86.6597 77.3719C86.6597 77.3719 86.0716 77.3719 86.0716 77.3719C82.4153 82.1133 77.8961 86.1717 72.7397 89.2585C72.7397 89.2585 72.7397 89.2585 72.7397 89.2585Z" fill="#FFFFFF" fill-rule="evenodd" transform="translate(313.304 7.503)" />
    <path id="Path" d="M56.1683 29.5676C53.7729 23.8594 50.3271 18.7359 45.9613 14.3048C41.5778 9.87175 36.4702 6.40667 30.7869 3.9394C24.9207 1.39389 18.6554 0 12.2113 0C12.2113 0 0 0 0 0L0 0.44976C0 0.44976 12.2113 0.44976 12.2113 0.44976C22.71 0.44976 32.5776 5.66475 39.9655 14.64C47.37 23.6357 51.4681 35.5658 51.4681 48.2332C51.4681 60.9018 47.3741 72.8296 39.9655 81.8271C32.5776 90.8028 22.7085 96.0193 12.2113 96.0193C12.2113 96.0193 0 96.0193 0 96.0193L0 96.4649C0 96.4649 12.2113 96.4649 12.2113 96.4649C18.6576 96.4649 24.9226 95.0732 30.7869 92.5254C36.4702 90.0601 41.5778 86.5954 45.9613 82.1624C50.327 77.7558 53.7729 72.6077 56.1683 66.8999C58.6541 60.9902 59.9044 54.7022 59.9044 48.2332C59.9044 41.7649 58.6541 35.4973 56.1683 29.5676C56.1683 29.5676 56.1683 29.5676 56.1683 29.5676Z" fill="#FFFFFF" fill-rule="evenodd" transform="translate(80.326 7.503)" />
    <path id="Shape" d="M53.9996 148.855C53.9996 150.599 55.4249 152.18 57.3245 152.18C59.2244 152.18 60.6497 150.599 60.6497 148.855C60.6497 146.956 59.2244 145.53 57.3245 145.53C55.4249 145.53 53.9996 147.114 53.9996 148.855C53.9996 148.855 53.9996 148.855 53.9996 148.855ZM66.5095 98.9722C66.5095 97.8641 67.2994 97.0726 68.4072 97.0726C69.5176 97.0726 70.3075 97.8641 70.3075 98.9722C70.3075 100.081 69.5176 100.872 68.4072 100.872C67.4597 100.872 66.5095 100.081 66.5095 98.9722C66.5095 98.9722 66.5095 98.9722 66.5095 98.9722ZM66.5095 110.215C66.5095 109.107 67.2994 108.317 68.4072 108.317C69.5176 108.317 70.3075 109.107 70.3075 110.215C70.3075 111.324 69.5176 112.116 68.4072 112.116C67.4597 112.116 66.5095 111.324 66.5095 110.215C66.5095 110.215 66.5095 110.215 66.5095 110.215ZM66.5095 121.461C66.5095 120.351 67.2994 119.559 68.4072 119.559C69.5176 119.559 70.3075 120.351 70.3075 121.461C70.3075 122.569 69.5176 123.359 68.4072 123.359C67.4597 123.359 66.5095 122.569 66.5095 121.461C66.5095 121.461 66.5095 121.461 66.5095 121.461ZM28.0301 57.168C28.0301 57.168 11.5604 83.7713 3.32523 97.2306C6.80845 96.1225 10.1356 96.5975 10.6103 96.7536C15.8351 97.7057 20.9012 100.078 25.0178 103.408C32.7799 109.424 37.3716 118.45 38.3218 128.108C39.1132 136.185 38.9571 145.212 45.7629 150.753C53.8394 157.405 67.4597 154.555 71.5756 144.895C73.6362 140.146 73.3172 135.077 73.1592 130.01C72.8447 123.519 72.6845 117.025 72.5257 110.532C72.2109 98.1808 71.7343 85.827 71.5756 73.4774C71.2592 61.1244 71.1008 48.7752 70.7841 36.4214C70.628 30.5631 70.4678 24.5427 70.628 18.5268C70.7841 13.9351 71.8927 9.97491 76.8004 8.71028C78.4475 8.29717 80.5656 7.80168 82.6628 7.95135C82.6628 7.95135 82.6628 7.47627 82.6628 7.47627C82.6628 7.47627 74.7058 7.47627 74.7058 7.47627C68.578 7.47627 66.5095 10.5713 66.5095 22.803C66.0265 57.6121 65.3106 92.5323 64.1345 127.319C63.9742 131.277 64.6095 136.501 62.7099 140.146C60.9661 143.628 55.5829 144.579 53.048 141.253C49.4064 136.501 51.7811 124.784 51.4666 119.082C50.6752 106.891 47.8228 95.8061 42.44 83.7713C37.2129 71.7358 28.0301 57.168 28.0301 57.168C28.0301 57.168 28.0301 57.168 28.0301 57.168ZM2.20382e-11 99.4473C2.20382e-11 99.4473 17.5767 59.5408 22.1703 49.7227C22.645 48.6149 24.2283 48.1414 25.1784 48.9313C25.1784 48.9313 28.0301 50.9915 28.0301 50.9915C28.978 51.6246 29.1386 52.7308 28.5029 53.681C22.9618 62.0738 -1.84547e-05 99.4473 -1.84547e-05 99.4473C-1.84547e-05 99.4473 2.20382e-11 99.4473 2.20382e-11 99.4473ZM74.5844 138.087L74.5844 131.594L76.484 131.594C76.484 131.594 76.484 138.087 76.484 138.087C76.484 148.38 68.0927 156.774 57.7977 156.774C57.7977 156.774 57.3245 156.774 57.3245 156.774L57.3245 154.872C57.3245 154.872 57.7995 154.872 57.7995 154.872C66.9846 154.872 74.5844 147.272 74.5844 138.087C74.5844 138.087 74.5844 138.087 74.5844 138.087ZM65.4009 40.3812L59.8579 40.3812C59.8579 40.3812 59.8579 45.1295 59.8579 45.1295C61.285 45.6061 62.2348 46.8733 62.2348 48.2978C62.2348 49.7227 61.2824 50.9915 59.8579 51.4666C59.8579 51.4666 59.8579 58.114 59.8579 58.114C61.7575 58.5891 63.1827 60.1746 63.1827 62.2348C63.1827 64.2905 61.7575 65.8741 59.8579 66.3511C59.8579 66.3511 59.8579 74.5837 59.8579 74.5837C61.285 75.061 62.2348 76.3253 62.2348 77.7505C62.2348 79.1773 61.2824 80.442 59.8579 80.9193C59.8579 80.9193 59.8579 92.1619 59.8579 92.1619L63.8181 92.1619L63.8181 94.2225L59.8579 94.2225L59.8579 95.1708L57.9598 95.1708C57.9598 95.1708 57.9598 81.0773 57.9598 81.0773C56.533 80.6022 55.5828 79.3357 55.5828 77.9089C55.5828 76.4863 56.533 75.2175 57.9598 74.7447C57.9598 74.7447 57.9598 66.5072 57.9598 66.5072C56.0579 66.0344 54.6327 64.4515 54.6327 62.3928C54.6327 60.3326 56.0602 58.7493 57.9598 58.2742C57.9598 58.2742 57.9598 51.6245 57.9598 51.6245C56.533 51.1479 55.5828 49.8829 55.5828 48.4561C55.5828 47.0313 56.533 45.7647 57.9598 45.2897C57.9598 45.2897 57.9598 37.6879 57.9598 37.6879L59.8579 37.6879L59.8579 38.6381L65.4009 38.6381L65.4009 40.3812L65.4009 40.3812ZM77.2777 3.48549L77.4365 3.48549L77.4365 3.96057L84.4044 3.96057C84.4044 3.96057 84.4044 1.58362 84.4044 1.58362C84.4044 0.635341 83.613 0 82.8212 0C82.8212 0 78.861 0 78.861 0C77.9131 0 77.2777 0.792188 77.2777 1.58362C77.2777 1.58362 76.6443 1.58362 76.6443 1.58362C69.5199 1.58362 63.6594 7.44152 63.6594 14.5686C63.6594 14.5686 63.3411 28.978 63.3411 28.978L61.9177 28.978L61.9177 30.878L65.401 30.878L65.401 28.978L65.243 28.978C65.243 28.978 65.5597 14.5686 65.5597 14.5686C65.5597 8.39395 70.628 3.48549 76.6443 3.48549C76.6443 3.48549 77.2777 3.48549 77.2777 3.48549L77.2777 3.48549ZM74.2696 125.735L78.2279 125.735C78.2279 125.735 78.2279 121.461 78.2279 121.461C75.5361 120.983 73.6362 118.767 73.6362 115.917C73.6362 113.223 75.6926 110.851 78.2279 110.374C78.2279 110.374 78.2279 107.842 78.2279 107.842C76.3276 107.366 74.9027 105.782 74.9027 103.722C74.9027 101.664 76.3276 100.081 78.2279 99.6057C78.2279 99.6057 78.2279 94.0646 78.2279 94.0646C76.3276 93.5895 74.9027 91.8479 74.9027 89.7876C74.9027 87.7297 76.3276 85.9896 78.2279 85.513C78.2279 85.513 78.2279 81.7127 78.2279 81.7127L72.6845 81.7127L72.6845 79.8131L74.4261 79.8131C74.4261 79.8131 74.4261 55.2639 74.4261 55.2639C72.09 54.6002 72.1762 50.9484 74.4261 50.2001C74.4261 50.2001 74.4261 33.7301 74.4261 33.7301L72.6845 33.7301L72.6845 31.8297L74.4261 31.8297L74.4261 30.5632L76.3276 30.5632L76.3276 31.8297L78.0692 31.8297L78.0692 33.7301L76.3276 33.7301C76.3276 33.7301 76.3276 50.0395 76.3276 50.0395C77.4339 50.3562 78.0692 51.4666 78.0692 52.5729C78.0692 53.681 77.2778 54.7915 76.3276 55.1078C76.3276 55.1078 76.3276 79.8108 76.3276 79.8108L78.0692 79.8108L78.0692 78.8606L79.9695 78.8606C79.9695 78.8606 79.9695 85.513 79.9695 85.513C81.8672 85.9873 83.294 87.7297 83.294 89.7876C83.294 91.8437 81.8672 93.5894 79.9695 94.0645C79.9695 94.0645 79.9695 99.6034 79.9695 99.6034C81.8672 100.079 83.294 101.664 83.294 103.72C83.294 105.78 81.8672 107.364 79.9695 107.841C79.9695 107.841 79.9695 110.374 79.9695 110.374C82.6587 110.849 84.5628 113.066 84.5628 115.915C84.5628 118.607 82.5026 120.983 79.9695 121.459C79.9695 121.459 79.9695 128.583 79.9695 128.583L78.0692 128.583L78.0692 127.634L74.1094 127.634L74.1094 125.735L74.2696 125.735L74.2696 125.735Z" fill="#FFFFFF" fill-rule="evenodd" />
  </g>
</svg>